<mxfile host="app.diagrams.net" modified="2023-05-19T09:10:57.434Z" agent="Mozilla/5.0 (Windows NT 10.0; Win64; x64) AppleWebKit/537.36 (KHTML, like Gecko) Chrome/113.0.0.0 Safari/537.36" etag="abcMVSUghm-kId_kawYi" version="21.3.2" type="device" pages="3">
  <diagram name="nosotros-MOVIL" id="nGsaSEZaHwmXGhaquVfT">
    <mxGraphModel dx="2049" dy="1137" grid="1" gridSize="10" guides="1" tooltips="1" connect="1" arrows="1" fold="1" page="1" pageScale="1" pageWidth="660" pageHeight="1169" math="0" shadow="0">
      <root>
        <mxCell id="0" />
        <mxCell id="1" parent="0" />
        <mxCell id="CQ7A8YCQlLuDeGHERGbg-1" value="" style="rounded=0;whiteSpace=wrap;html=1;" vertex="1" parent="1">
          <mxGeometry width="660" height="90" as="geometry" />
        </mxCell>
        <mxCell id="CQ7A8YCQlLuDeGHERGbg-2" value="IMAGEN NOSOTROS" style="rounded=0;whiteSpace=wrap;html=1;" vertex="1" parent="1">
          <mxGeometry y="90" width="660" height="870" as="geometry" />
        </mxCell>
        <mxCell id="CQ7A8YCQlLuDeGHERGbg-3" value="" style="rounded=0;whiteSpace=wrap;html=1;" vertex="1" parent="1">
          <mxGeometry y="960" width="660" height="209" as="geometry" />
        </mxCell>
        <mxCell id="CQ7A8YCQlLuDeGHERGbg-4" value="LOGO" style="rounded=0;whiteSpace=wrap;html=1;" vertex="1" parent="1">
          <mxGeometry x="20" y="15" width="120" height="60" as="geometry" />
        </mxCell>
        <mxCell id="CQ7A8YCQlLuDeGHERGbg-5" value="MENU HAMBURGUESA" style="rounded=0;whiteSpace=wrap;html=1;" vertex="1" parent="1">
          <mxGeometry x="510" y="15" width="110" height="60" as="geometry" />
        </mxCell>
        <mxCell id="CQ7A8YCQlLuDeGHERGbg-6" value="TEXTO NOSOTROS" style="rounded=1;whiteSpace=wrap;html=1;" vertex="1" parent="1">
          <mxGeometry x="95" y="280" width="475" height="130" as="geometry" />
        </mxCell>
        <mxCell id="CQ7A8YCQlLuDeGHERGbg-7" value="CARACTERÍSTICA 1" style="rounded=1;whiteSpace=wrap;html=1;" vertex="1" parent="1">
          <mxGeometry x="155" y="440" width="350" height="60" as="geometry" />
        </mxCell>
        <mxCell id="CQ7A8YCQlLuDeGHERGbg-8" value="CARACTERÍSTICA 2" style="rounded=1;whiteSpace=wrap;html=1;" vertex="1" parent="1">
          <mxGeometry x="155" y="540" width="350" height="60" as="geometry" />
        </mxCell>
        <mxCell id="CQ7A8YCQlLuDeGHERGbg-9" value="SECCIÓN 1" style="rounded=0;whiteSpace=wrap;html=1;" vertex="1" parent="1">
          <mxGeometry x="30" y="980" width="120" height="160" as="geometry" />
        </mxCell>
        <mxCell id="CQ7A8YCQlLuDeGHERGbg-10" value="SECCIÓN 2" style="rounded=0;whiteSpace=wrap;html=1;" vertex="1" parent="1">
          <mxGeometry x="210" y="980" width="120" height="160" as="geometry" />
        </mxCell>
        <mxCell id="CQ7A8YCQlLuDeGHERGbg-11" value="INFO EXTRA" style="rounded=0;whiteSpace=wrap;html=1;" vertex="1" parent="1">
          <mxGeometry x="350" y="1080" width="270" height="60" as="geometry" />
        </mxCell>
        <mxCell id="CQ7A8YCQlLuDeGHERGbg-13" value="TÍTULO NOSOTROS" style="rounded=1;whiteSpace=wrap;html=1;" vertex="1" parent="1">
          <mxGeometry x="95" y="180" width="470" height="60" as="geometry" />
        </mxCell>
        <mxCell id="CQ7A8YCQlLuDeGHERGbg-17" value="NOMBRE DE EMPRESA" style="rounded=0;whiteSpace=wrap;html=1;" vertex="1" parent="1">
          <mxGeometry x="170" y="15" width="180" height="60" as="geometry" />
        </mxCell>
        <mxCell id="CQ7A8YCQlLuDeGHERGbg-18" value="CARACTERÍSTICA 3" style="rounded=1;whiteSpace=wrap;html=1;" vertex="1" parent="1">
          <mxGeometry x="155" y="640" width="350" height="60" as="geometry" />
        </mxCell>
      </root>
    </mxGraphModel>
  </diagram>
  <diagram id="F7uuzcV3U8DK1xdSbNzM" name="nosotros-TABLET">
    <mxGraphModel dx="2607" dy="1447" grid="1" gridSize="10" guides="1" tooltips="1" connect="1" arrows="1" fold="1" page="1" pageScale="1" pageWidth="660" pageHeight="1169" math="0" shadow="0">
      <root>
        <mxCell id="0" />
        <mxCell id="1" parent="0" />
        <mxCell id="GsbxT_K9I5OSxAmfOny_-1" value="" style="rounded=0;whiteSpace=wrap;html=1;" vertex="1" parent="1">
          <mxGeometry width="850" height="90" as="geometry" />
        </mxCell>
        <mxCell id="GsbxT_K9I5OSxAmfOny_-2" value="IMAGEN DE NOSOTROS" style="rounded=0;whiteSpace=wrap;html=1;" vertex="1" parent="1">
          <mxGeometry y="90" width="850" height="870" as="geometry" />
        </mxCell>
        <mxCell id="GsbxT_K9I5OSxAmfOny_-3" value="" style="rounded=0;whiteSpace=wrap;html=1;" vertex="1" parent="1">
          <mxGeometry y="960" width="850" height="209" as="geometry" />
        </mxCell>
        <mxCell id="GsbxT_K9I5OSxAmfOny_-4" value="LOGO" style="rounded=0;whiteSpace=wrap;html=1;" vertex="1" parent="1">
          <mxGeometry x="20" y="15" width="120" height="60" as="geometry" />
        </mxCell>
        <mxCell id="GsbxT_K9I5OSxAmfOny_-5" value="MENU HAMBURGUESA" style="rounded=0;whiteSpace=wrap;html=1;" vertex="1" parent="1">
          <mxGeometry x="690" y="15" width="110" height="60" as="geometry" />
        </mxCell>
        <mxCell id="GsbxT_K9I5OSxAmfOny_-9" value="SECCIÓN 1" style="rounded=0;whiteSpace=wrap;html=1;" vertex="1" parent="1">
          <mxGeometry x="30" y="980" width="170" height="160" as="geometry" />
        </mxCell>
        <mxCell id="GsbxT_K9I5OSxAmfOny_-10" value="SECCIÓN 2" style="rounded=0;whiteSpace=wrap;html=1;" vertex="1" parent="1">
          <mxGeometry x="290" y="980" width="175" height="160" as="geometry" />
        </mxCell>
        <mxCell id="GsbxT_K9I5OSxAmfOny_-11" value="INFO EXTRA" style="rounded=0;whiteSpace=wrap;html=1;" vertex="1" parent="1">
          <mxGeometry x="550" y="1080" width="270" height="60" as="geometry" />
        </mxCell>
        <mxCell id="GsbxT_K9I5OSxAmfOny_-17" value="NOMBRE DE EMPRESA" style="rounded=0;whiteSpace=wrap;html=1;" vertex="1" parent="1">
          <mxGeometry x="170" y="15" width="180" height="60" as="geometry" />
        </mxCell>
        <mxCell id="18XhKR0fRGEs6boSIQMM-1" value="TEXTO NOSOTROS" style="rounded=1;whiteSpace=wrap;html=1;" vertex="1" parent="1">
          <mxGeometry x="200" y="290" width="475" height="130" as="geometry" />
        </mxCell>
        <mxCell id="18XhKR0fRGEs6boSIQMM-2" value="CARACTERÍSTICA 1" style="rounded=1;whiteSpace=wrap;html=1;" vertex="1" parent="1">
          <mxGeometry x="260" y="450" width="350" height="60" as="geometry" />
        </mxCell>
        <mxCell id="18XhKR0fRGEs6boSIQMM-3" value="CARACTERÍSTICA 2" style="rounded=1;whiteSpace=wrap;html=1;" vertex="1" parent="1">
          <mxGeometry x="260" y="550" width="350" height="60" as="geometry" />
        </mxCell>
        <mxCell id="18XhKR0fRGEs6boSIQMM-4" value="TÍTULO NOSOTROS" style="rounded=1;whiteSpace=wrap;html=1;" vertex="1" parent="1">
          <mxGeometry x="200" y="190" width="470" height="60" as="geometry" />
        </mxCell>
        <mxCell id="18XhKR0fRGEs6boSIQMM-5" value="CARACTERÍSTICA 3" style="rounded=1;whiteSpace=wrap;html=1;" vertex="1" parent="1">
          <mxGeometry x="260" y="650" width="350" height="60" as="geometry" />
        </mxCell>
      </root>
    </mxGraphModel>
  </diagram>
  <diagram id="Uy0MvRXAjBbZQZImSoeh" name="nosotros-ESCRITORIO">
    <mxGraphModel dx="2868" dy="1592" grid="1" gridSize="10" guides="1" tooltips="1" connect="1" arrows="1" fold="1" page="1" pageScale="1" pageWidth="660" pageHeight="1169" math="0" shadow="0">
      <root>
        <mxCell id="0" />
        <mxCell id="1" parent="0" />
        <mxCell id="_TMaIUC9LCefOR3Y_fzV-1" value="" style="rounded=0;whiteSpace=wrap;html=1;" vertex="1" parent="1">
          <mxGeometry width="1580" height="90" as="geometry" />
        </mxCell>
        <mxCell id="_TMaIUC9LCefOR3Y_fzV-2" value="&lt;font style=&quot;font-size: 18px;&quot;&gt;IMAGEN DE NOSOTROS&lt;br&gt;&lt;/font&gt;" style="rounded=0;whiteSpace=wrap;html=1;" vertex="1" parent="1">
          <mxGeometry y="90" width="1580" height="870" as="geometry" />
        </mxCell>
        <mxCell id="_TMaIUC9LCefOR3Y_fzV-3" value="" style="rounded=0;whiteSpace=wrap;html=1;" vertex="1" parent="1">
          <mxGeometry y="960" width="1580" height="209" as="geometry" />
        </mxCell>
        <mxCell id="_TMaIUC9LCefOR3Y_fzV-4" value="LOGO" style="rounded=0;whiteSpace=wrap;html=1;" vertex="1" parent="1">
          <mxGeometry x="20" y="15" width="120" height="60" as="geometry" />
        </mxCell>
        <mxCell id="_TMaIUC9LCefOR3Y_fzV-5" value="MENU" style="rounded=0;whiteSpace=wrap;html=1;" vertex="1" parent="1">
          <mxGeometry x="390" y="15" width="910" height="60" as="geometry" />
        </mxCell>
        <mxCell id="_TMaIUC9LCefOR3Y_fzV-9" value="SECCIÓN 1" style="rounded=0;whiteSpace=wrap;html=1;" vertex="1" parent="1">
          <mxGeometry x="90" y="980" width="170" height="160" as="geometry" />
        </mxCell>
        <mxCell id="_TMaIUC9LCefOR3Y_fzV-10" value="SECCIÓN 2" style="rounded=0;whiteSpace=wrap;html=1;" vertex="1" parent="1">
          <mxGeometry x="330" y="980" width="175" height="160" as="geometry" />
        </mxCell>
        <mxCell id="_TMaIUC9LCefOR3Y_fzV-11" value="INFO EXTRA" style="rounded=0;whiteSpace=wrap;html=1;" vertex="1" parent="1">
          <mxGeometry x="1250" y="1060" width="270" height="70" as="geometry" />
        </mxCell>
        <mxCell id="_TMaIUC9LCefOR3Y_fzV-17" value="NOMBRE DE EMPRESA" style="rounded=0;whiteSpace=wrap;html=1;" vertex="1" parent="1">
          <mxGeometry x="170" y="15" width="180" height="60" as="geometry" />
        </mxCell>
        <mxCell id="fr_1VZRnaJkpK-PEDHrF-1" value="TEXTO NOSOTROS" style="rounded=1;whiteSpace=wrap;html=1;" vertex="1" parent="1">
          <mxGeometry x="557.5" y="290" width="475" height="130" as="geometry" />
        </mxCell>
        <mxCell id="fr_1VZRnaJkpK-PEDHrF-2" value="CARACTERÍSTICA 1" style="rounded=1;whiteSpace=wrap;html=1;" vertex="1" parent="1">
          <mxGeometry x="617.5" y="450" width="350" height="60" as="geometry" />
        </mxCell>
        <mxCell id="fr_1VZRnaJkpK-PEDHrF-3" value="CARACTERÍSTICA 2" style="rounded=1;whiteSpace=wrap;html=1;" vertex="1" parent="1">
          <mxGeometry x="617.5" y="550" width="350" height="60" as="geometry" />
        </mxCell>
        <mxCell id="fr_1VZRnaJkpK-PEDHrF-4" value="TÍTULO NOSOTROS" style="rounded=1;whiteSpace=wrap;html=1;" vertex="1" parent="1">
          <mxGeometry x="350" y="160" width="890" height="90" as="geometry" />
        </mxCell>
        <mxCell id="fr_1VZRnaJkpK-PEDHrF-5" value="CARACTERÍSTICA 3" style="rounded=1;whiteSpace=wrap;html=1;" vertex="1" parent="1">
          <mxGeometry x="617.5" y="650" width="350" height="60" as="geometry" />
        </mxCell>
      </root>
    </mxGraphModel>
  </diagram>
</mxfile>
